<?xml version="1.0" standalone="no"?>
<!DOCTYPE svg PUBLIC "-//W3C//DTD SVG 20010904//EN"
 "http://www.w3.org/TR/2001/REC-SVG-20010904/DTD/svg10.dtd">
<svg version="1.0" xmlns="http://www.w3.org/2000/svg"
 width="400.000000pt" height="300.000000pt" viewBox="0 0 400.000000 300.000000"
 preserveAspectRatio="xMidYMid meet">

<g transform="translate(0.000000,300.000000) scale(0.100000,-0.100000)"
fill="#000000" stroke="none">
<path d="M2287 2078 c-16 -11 -33 -30 -38 -42 -5 -12 -21 -42 -36 -67 -16 -25
-47 -78 -71 -117 l-43 -72 -98 0 c-110 0 -123 -7 -136 -70 -13 -64 -24 -68
-25 -10 0 31 -5 61 -12 68 -18 18 -203 16 -220 -2 -11 -12 -15 -12 -29 0 -12
11 -73 14 -309 15 -284 2 -294 1 -310 -18 -16 -20 -17 -20 -28 -2 -11 17 -26
19 -160 19 -102 0 -152 -4 -160 -12 -9 -9 -15 -9 -24 0 -8 8 -49 12 -119 12
l-107 0 -32 -40 -32 -41 1 -216 c1 -216 1 -216 26 -249 15 -19 38 -40 53 -47
36 -18 166 -13 196 7 21 13 25 13 39 -1 24 -24 217 -26 265 -2 33 17 36 17 57
1 19 -15 45 -17 216 -14 107 1 208 2 224 2 17 1 47 -2 67 -4 26 -4 42 0 53 10
12 12 19 13 29 5 22 -18 123 -21 137 -4 10 11 14 11 28 -1 17 -15 123 -14 128
1 2 4 35 6 73 5 44 -2 76 1 85 8 10 9 21 7 45 -5 38 -20 141 -12 165 12 17 16
20 39 6 47 -5 3 -7 15 -4 26 3 11 2 28 -2 37 -4 10 -7 32 -6 49 1 18 -2 35 -7
38 -6 3 -8 15 -5 26 3 11 2 28 -2 37 -4 10 -8 39 -10 65 -2 26 -9 56 -14 67
-6 11 -11 22 -11 25 0 3 34 6 75 6 l75 0 0 -30 c0 -46 39 -80 90 -80 l40 0 0
-148 c0 -179 2 -182 101 -182 35 0 71 5 79 10 12 7 16 40 20 157 4 130 7 148
23 151 16 3 17 -9 17 -141 0 -174 2 -177 101 -177 37 0 70 5 77 12 8 8 12 55
12 143 1 134 9 165 44 165 14 0 16 -17 16 -143 0 -172 3 -177 97 -177 64 0 93
17 93 55 0 17 3 16 28 -7 36 -34 84 -57 118 -58 65 0 78 1 142 8 21 3 109 90
122 121 8 20 9 35 2 48 -7 13 -6 24 4 38 16 22 19 81 4 90 -6 4 -8 11 -4 16
10 16 -17 79 -49 115 -46 53 -91 72 -172 72 -81 0 -136 -20 -179 -66 l-28 -30
-30 34 c-17 19 -40 40 -51 46 -34 18 -128 17 -167 -1 -33 -16 -37 -16 -64 0
-31 19 -138 21 -169 3 -9 -5 -33 -8 -52 -6 -34 4 -35 5 -35 48 0 33 -5 47 -20
56 -18 12 -20 24 -20 155 0 135 -1 143 -22 157 -34 24 -126 21 -161 -6z
m-1555 -339 c-13 -5 -28 -7 -33 -3 -5 3 -9 1 -9 -5 0 -5 6 -12 13 -15 6 -3 -6
-4 -28 -3 -29 1 -41 7 -43 20 -3 15 5 17 60 16 50 0 58 -2 40 -10z m185 -64
c13 -38 34 -105 47 -149 l23 -78 -5 151 -5 152 54 -3 54 -3 2 -262 2 -263 -67
0 -68 0 -38 123 c-22 67 -42 133 -47 147 -7 24 -7 24 -8 3 -1 -16 -7 -23 -21
-23 -11 0 -20 -5 -20 -11 0 -6 8 -8 19 -4 26 8 29 -8 30 -132 l1 -103 -55 0
-55 0 0 265 0 266 67 -3 66 -3 24 -70z m223 60 c0 -9 -6 -12 -16 -8 -13 5 -13
7 -2 14 17 11 18 11 18 -6z m68 -4 c3 -8 -1 -12 -9 -9 -7 2 -15 10 -17 17 -3
8 1 12 9 9 7 -2 15 -10 17 -17z m69 2 c6 -17 -55 -12 -62 5 -3 10 4 12 27 10
17 -2 33 -8 35 -15z m75 7 c2 -5 1 -35 0 -65 -4 -50 -6 -55 -27 -55 -15 0 -25
7 -28 21 -4 16 -10 19 -28 14 -18 -6 -21 -4 -16 9 7 19 -4 21 -21 4 -9 -9 -12
-8 -12 5 0 19 41 40 51 25 3 -5 21 -2 40 6 34 15 34 15 7 16 -18 0 -28 5 -28
15 0 17 56 22 62 5z m79 -2 c0 -10 2 -10 6 0 3 7 25 12 58 12 42 0 55 -4 59
-17 10 -35 36 -245 31 -253 -3 -5 -2 -11 3 -14 4 -2 15 56 25 131 9 74 19 139
23 144 3 5 43 9 90 9 l84 0 0 -265 0 -265 -56 0 -56 0 4 169 c2 94 0 164 -4
158 -4 -7 -8 -23 -8 -37 0 -14 -9 -85 -21 -157 l-22 -133 -54 0 c-35 0 -53 4
-54 13 -6 75 -8 72 46 74 69 2 73 3 50 13 -11 5 -41 9 -66 9 -41 1 -47 4 -51
26 -3 13 0 27 6 30 8 3 7 7 -1 11 -21 9 -15 24 10 25 l22 2 -22 4 c-13 2 -24
7 -24 11 -1 4 -3 16 -5 27 -2 11 -8 40 -13 65 l-8 45 -2 -62 c-1 -58 -3 -63
-23 -63 -13 0 -30 -5 -38 -10 -12 -7 -10 -11 10 -18 19 -7 26 -6 28 4 7 28 18
13 21 -28 1 -23 4 -45 7 -49 2 -4 -6 -15 -18 -23 -18 -13 -19 -16 -5 -16 9 0
17 -7 17 -15 0 -8 -4 -15 -10 -15 -5 0 -10 -5 -10 -11 0 -5 5 -7 10 -4 6 4 10
-5 10 -19 0 -24 -3 -26 -50 -26 l-50 0 0 35 c0 21 5 35 13 36 10 0 10 2 0 6
-16 6 -18 123 -3 123 6 0 10 8 10 18 0 14 -2 15 -10 2 -6 -10 -10 39 -10 148
l0 162 25 0 c14 0 25 -6 26 -12z m655 -23 c3 -20 4 -54 0 -75 -3 -22 -2 -40 3
-40 10 0 24 -71 46 -228 22 -164 25 -152 -44 -152 -63 0 -71 7 -71 68 0 20 -5
23 -27 20 -25 -3 -28 -8 -31 -45 l-3 -41 -65 -1 c-35 0 -64 3 -64 7 -1 26 45
308 50 310 3 1 4 17 2 35 -2 17 1 50 7 72 l10 40 0 -40 c-2 -108 1 -139 12
-128 8 8 15 172 8 210 -4 20 6 23 81 23 l79 0 7 -35z m-881 -57 c0 -29 -3 -54
-7 -55 -22 -8 -28 -1 -13 13 13 14 14 19 3 25 -7 5 -17 9 -23 9 -5 0 -5 -4 2
-8 15 -10 -4 -37 -35 -46 -16 -6 -22 -3 -22 8 0 10 9 16 23 17 15 1 17 3 6 6
-20 5 -30 48 -16 62 6 6 18 11 26 11 12 0 12 -3 3 -12 -7 -7 -12 -21 -11 -32
0 -15 2 -16 6 -6 3 8 17 25 31 37 15 13 27 23 27 23 0 0 0 -24 0 -52z m-465
31 c0 -3 -19 -11 -42 -16 -42 -10 -43 -11 -10 -13 47 -4 50 -4 58 -12 4 -5
-17 -9 -47 -10 l-54 -1 50 -7 50 -7 -57 -1 -57 -2 2 38 1 38 53 0 c29 -1 53
-3 53 -7z m510 -50 c0 -6 -7 -17 -15 -25 -13 -14 -15 -13 -15 4 0 10 3 22 7
25 10 11 23 8 23 -4z m35 -9 c-3 -5 -10 -10 -16 -10 -5 0 -9 5 -9 10 0 6 7 10
16 10 8 0 12 -4 9 -10z m-546 -34 c6 -4 11 -12 11 -19 0 -8 -3 -8 -12 1 -7 7
-17 12 -22 12 -6 0 -5 -5 2 -12 22 -22 12 -34 -30 -37 -23 -1 -45 -4 -50 -7
-9 -6 -11 37 -2 60 4 11 17 14 49 12 24 -2 48 -7 54 -10z m471 -67 c0 -16 -4
-29 -10 -29 -5 0 -10 7 -10 15 0 29 -17 14 -18 -16 -1 -24 2 -28 13 -19 9 8
15 8 20 0 3 -5 14 -10 24 -10 10 0 25 -8 32 -17 7 -10 9 -15 5 -11 -17 14 -36
-14 -36 -53 l0 -39 60 0 60 0 0 -34 c0 -21 -6 -36 -15 -40 -8 -3 -15 -10 -15
-16 0 -5 7 -10 15 -10 8 0 15 -7 15 -15 0 -13 -20 -15 -120 -15 l-121 0 2 135
c1 121 8 159 22 123 3 -7 6 -2 6 11 1 16 -3 22 -14 17 -11 -4 -14 2 -13 22 3
35 9 38 58 34 37 -4 40 -7 40 -33z m60 11 c0 -17 -30 -18 -39 -1 -9 16 -7 17
14 13 14 -2 25 -8 25 -12z m23 -27 c-8 -19 -22 -16 -18 5 2 9 4 22 4 27 1 6 5
4 10 -4 5 -8 7 -20 4 -28z m47 17 c0 -5 -7 -10 -16 -10 -8 0 -12 5 -9 10 3 6
10 10 16 10 5 0 9 -4 9 -10z m-753 -25 c0 -8 -7 -15 -16 -15 -9 0 -33 -3 -53
-6 -31 -5 -38 -3 -38 9 0 11 12 17 43 20 23 2 47 4 53 5 6 1 11 -5 11 -13z
m96 -1 c-4 -14 -53 -13 -53 2 0 8 10 12 28 10 15 -2 26 -7 25 -12z m57 -4 c0
-5 -9 -10 -20 -10 -11 0 -20 5 -20 10 0 6 9 10 20 10 11 0 20 -4 20 -10z m504
-6 c3 -8 2 -12 -4 -9 -6 3 -10 10 -10 16 0 14 7 11 14 -7z m106 -20 c0 -2 -7
-4 -15 -4 -8 0 -15 4 -15 10 0 5 7 7 15 4 8 -4 15 -8 15 -10z m-670 -4 c0 -5
-12 -10 -27 -9 l-28 1 25 8 c14 4 26 8 28 9 1 1 2 -3 2 -9z m70 -8 c0 -5 -13
-9 -30 -9 -16 0 -30 4 -30 9 0 4 14 8 30 8 17 0 30 -4 30 -8z m0 -45 c0 -7 -3
-22 -6 -35 -6 -21 -12 -23 -58 -20 -42 2 -51 6 -53 23 -2 11 0 14 3 8 3 -7 13
-13 22 -13 12 0 13 3 4 12 -23 23 -12 33 38 35 33 1 50 -2 50 -10z m573 6
c-13 -2 -33 -2 -45 0 -13 2 -3 4 22 4 25 0 35 -2 23 -4z m1980 -70 c-7 -2 -21
-2 -30 0 -10 3 -4 5 12 5 17 0 24 -2 18 -5z m-2558 -43 l1 -40 -58 0 c-68 0
-76 14 -15 26 l42 8 -42 4 c-61 5 -53 22 10 24 l52 1 -50 7 -50 7 55 1 55 2 0
-40z m-100 -60 c3 -5 1 -10 -4 -10 -6 0 -11 5 -11 10 0 6 2 10 4 10 3 0 8 -4
11 -10z m93 -2 c22 -22 12 -28 -50 -27 -42 0 -56 3 -43 8 11 5 25 7 30 6 6 -1
7 0 3 2 -5 3 -8 9 -8 14 0 13 54 11 68 -3z"/>
<path d="M825 1670 c-3 -5 -1 -10 4 -10 6 0 11 5 11 10 0 6 -2 10 -4 10 -3 0
-8 -4 -11 -10z"/>
<path d="M1008 1463 c7 -3 16 -2 19 1 4 3 -2 6 -13 5 -11 0 -14 -3 -6 -6z"/>
<path d="M1026 1365 c4 -8 8 -15 10 -15 2 0 4 7 4 15 0 8 -4 15 -10 15 -5 0
-7 -7 -4 -15z"/>
<path d="M993 1349 c-1 -10 2 -19 8 -19 11 0 12 27 1 34 -4 2 -9 -4 -9 -15z"/>
<path d="M1415 1300 c-3 -5 -2 -10 4 -10 5 0 13 5 16 10 3 6 2 10 -4 10 -5 0
-13 -4 -16 -10z"/>
<path d="M1987 1573 c-3 -15 -9 -54 -12 -85 -6 -54 -5 -58 15 -58 20 0 20 4
16 81 -5 88 -11 107 -19 62z"/>
<path d="M1900 1460 c0 -5 5 -10 10 -10 6 0 10 5 10 10 0 6 -4 10 -10 10 -5 0
-10 -4 -10 -10z"/>
<path d="M1912 1360 c0 -14 2 -19 5 -12 2 6 2 18 0 25 -3 6 -5 1 -5 -13z"/>
<path d="M1211 1434 c0 -11 3 -14 6 -6 3 7 2 16 -1 19 -3 4 -6 -2 -5 -13z"/>
</g>
</svg>
